# xmcd CD database file
#
# Track frame offsets:
#	150
#	12739
#	27965
#	41238
#	54866
#	70811
#	87935
#	102861
#	116519
#	130750
#	143992
#	156707
#	168782
#	183831
#	197448
#	210093
#
# Disc length: 3026 seconds
#
# Revision: 0
# Processed by: cddbd v1.5.1PL0 Copyright (c) Steve Scherf et al.
# Submitted via: CDex 1.51
#
DISCID=d40bd010
DTITLE=Forro Bailão - 2003
DYEAR=1900
DGENRE=Country
TTITLE0=Na sola na bota
TTITLE1=agora e so alegria
TTITLE2=credo em cruz ave maria
TTITLE3=nois so que vira o zoio
TTITLE4=eu sem voce
TTITLE5=eutrpsemia
TTITLE6=fala fala
TTITLE7=brasil samba e forro
TTITLE8=dim terim bebim
TTITLE9=ta nervoso vai pesca
TTITLE10=sera que vai chover
TTITLE11=mulher cerbeja e viola
TTITLE12=festa do interior
TTITLE13=goiano e mineiro
TTITLE14=o amor se vai
TTITLE15=abre as pernas
EXTD=
EXTT0=
EXTT1=
EXTT2=
EXTT3=
EXTT4=
EXTT5=
EXTT6=
EXTT7=
EXTT8=
EXTT9=
EXTT10=
EXTT11=
EXTT12=
EXTT13=
EXTT14=
EXTT15=
PLAYORDER=
